# Rhino

v 1.130878448486328 0 4.790204524993897
v 1.130878448486328 6.580292701721191 4.790204524993897
v 1.130878448486328 0 -1.858442544937134
v 1.130878448486328 6.580292701721191 -1.858442544937134
v 1.130878448486328 0 1.465880990028381
v 1.130878448486328 6.580292701721191 1.465880990028381
v 1.130878448486328 3.290146350860596 4.790204524993897
v 1.130878448486328 3.290146350860596 -1.858442544937134
v 1.130878448486328 0 -1.858442544937134
v 1.130878448486328 6.580292701721191 -1.858442544937134
v 8.690866470336914 0 -1.858442544937134
v 8.690866470336914 6.580292701721191 -1.858442544937134
v 4.910872459411621 0 -1.858442544937134
v 4.910872459411621 6.580292701721191 -1.858442544937134
v 1.130878448486328 3.290146350860596 -1.858442544937134
v 8.690866470336914 3.290146350860596 -1.858442544937134
v 8.690866470336914 0 -1.858442544937134
v 8.690866470336914 6.580292701721191 -1.858442544937134
v 8.690866470336914 0 4.790204524993897
v 8.690866470336914 6.580292701721191 4.790204524993897
v 8.690866470336914 0 1.465880990028381
v 8.690866470336914 6.580292701721191 1.465880990028381
v 8.690866470336914 3.290146350860596 -1.858442544937134
v 8.690866470336914 3.290146350860596 4.790204524993897
v 8.690866470336914 0 4.790204524993897
v 8.690866470336914 6.580292701721191 4.790204524993897
v 1.130878448486328 0 4.790204524993897
v 1.130878448486328 6.580292701721191 4.790204524993897
v 4.910872459411621 0 4.790204524993897
v 4.910872459411621 6.580292701721191 4.790204524993897
v 1.130878448486328 3.290146350860596 4.790204524993897
v 8.690866470336914 3.290146350860596 4.790204524993897
v 1.130878448486328 0 4.790204524993897
v 1.130878448486328 0 -1.858442544937134
v 8.690866470336914 0 4.790204524993897
v 8.690866470336914 0 -1.858442544937134
v 1.130878448486328 0 1.465880990028381
v 4.910872459411621 0 -1.858442544937134
v 8.690866470336914 0 1.465880990028381
v 4.910872459411621 0 4.790204524993897
v 1.130878448486328 6.580292701721191 4.790204524993897
v 8.690866470336914 6.580292701721191 4.790204524993897
v 1.130878448486328 6.580292701721191 -1.858442544937134
v 8.690866470336914 6.580292701721191 -1.858442544937134
v 1.130878448486328 6.580292701721191 1.465880990028381
v 4.910872459411621 6.580292701721191 -1.858442544937134
v 8.690866470336914 6.580292701721191 1.465880990028381
v 4.910872459411621 6.580292701721191 4.790204524993897
vt 0 0
vt 0 1
vt 1 0
vt 1 1
vt 0.5 0
vt 0.5 1
vt 0 0.5
vt 1 0.5
vt 0 0
vt 0 1
vt 1 0
vt 1 1
vt 0.5 0
vt 0.5 1
vt 0 0.5
vt 1 0.5
vt 0 0
vt 0 1
vt 1 0
vt 1 1
vt 0.5 0
vt 0.5 1
vt 0 0.5
vt 1 0.5
vt 0 0
vt 0 1
vt 1 0
vt 1 1
vt 0.5 0
vt 0.5 1
vt 1 0.5
vt 0 0.5
vt 0 0
vt 0 1
vt 1 0
vt 1 1
vt 0 0.5
vt 0.5 1
vt 1 0.5
vt 0.5 0
vt 0 0
vt 0 1
vt 1 0
vt 1 1
vt 0.5 0
vt 1 0.5
vt 0.5 1
vt 0 0.5
vn -1 -0 0
vn -1 -0 0
vn -1 -0 0
vn -1 -0 0
vn -1 -6.369687763352339e-18 -1.694065894508601e-18
vn -1 -6.369687763352339e-18 -1.694065894508601e-18
vn -1 -1.273937552670468e-17 -8.470329472543003e-19
vn -1 -1.273937552670468e-17 -8.470329472543003e-19
vn -0 -0 -1
vn -0 -0 -1
vn -0 -0 -1
vn -0 -0 -1
vn 2.317482143687766e-18 -2.710505431213761e-18 -1
vn 2.317482143687766e-18 -2.710505431213761e-18 -1
vn 1.158741071843883e-18 1.788933584601082e-18 -1
vn 1.158741071843883e-18 1.788933584601082e-18 -1
vn 1 -0 0
vn 1 -0 0
vn 1 -0 0
vn 1 -0 0
vn 1 7.589415207398531e-18 1.897353801849633e-17
vn 1 7.589415207398531e-18 1.897353801849633e-17
vn 1 8.64109131470947e-17 9.486769009248164e-18
vn 1 8.64109131470947e-17 9.486769009248164e-18
vn -0 0 1
vn -0 0 1
vn -0 0 1
vn -0 0 1
vn -1.013729031273947e-17 1.132991270247352e-17 1
vn -1.013729031273947e-17 1.132991270247352e-17 1
vn -5.068645156369733e-18 2.265982540494704e-17 1
vn -5.068645156369733e-18 2.265982540494704e-17 1
vn -0 -1 0
vn -0 -1 0
vn -0 -1 0
vn -0 -1 0
vn -0 -1 0
vn 0 -1 0
vn -0 -1 -0
vn -0 -1 0
vn -0 1 0
vn -0 1 0
vn -0 1 0
vn -0 1 0
vn 2.574980159653073e-17 1 5.475220971051797e-17
vn 5.149960319306146e-17 1 -2.930056371142076e-17
vn 2.574980159653073e-17 1 5.475220971051797e-17
vn 5.149960319306146e-17 1 -2.930056371142076e-17
f 1/1/1 7/7/7 5/5/5
f 5/5/5 8/8/8 3/3/3
f 4/4/4 8/8/8 6/6/6
f 6/6/6 7/7/7 2/2/2
f 7/7/7 6/6/6 5/5/5
f 5/5/5 6/6/6 8/8/8
f 9/9/9 15/15/15 13/13/13
f 13/13/13 16/16/16 11/11/11
f 12/12/12 16/16/16 14/14/14
f 14/14/14 15/15/15 10/10/10
f 15/15/15 14/14/14 13/13/13
f 13/13/13 14/14/14 16/16/16
f 17/17/17 23/23/23 21/21/21
f 21/21/21 24/24/24 19/19/19
f 20/20/20 24/24/24 22/22/22
f 22/22/22 23/23/23 18/18/18
f 23/23/23 22/22/22 21/21/21
f 21/21/21 22/22/22 24/24/24
f 25/25/25 32/32/32 29/29/29
f 29/29/29 31/31/31 27/27/27
f 28/28/28 31/31/31 30/30/30
f 30/30/30 32/32/32 26/26/26
f 32/32/32 30/30/30 29/29/29
f 29/29/29 30/30/30 31/31/31
f 34/34/34 38/38/38 37/37/37
f 37/37/37 40/40/40 33/33/33
f 36/36/36 39/39/39 38/38/38
f 35/35/35 40/40/40 39/39/39
f 38/38/38 40/40/40 37/37/37
f 39/39/39 40/40/40 38/38/38
f 41/41/41 48/48/48 45/45/45
f 45/45/45 46/46/46 43/43/43
f 46/46/46 47/47/47 44/44/44
f 47/47/47 48/48/48 42/42/42
f 48/48/48 46/46/46 45/45/45
f 46/46/46 48/48/48 47/47/47
